<?xml version="1.0" encoding="utf-8"?>
<!-- Generator: Adobe Illustrator 16.0.0, SVG Export Plug-In . SVG Version: 6.00 Build 0)  -->
<!DOCTYPE svg PUBLIC "-//W3C//DTD SVG 1.1//EN" "http://www.w3.org/Graphics/SVG/1.1/DTD/svg11.dtd">
<svg version="1.1" id="Capa_1" xmlns="http://www.w3.org/2000/svg" xmlns:xlink="http://www.w3.org/1999/xlink" x="0px" y="0px"
	 width="20.001px" height="20px" viewBox="0 0 20.001 20" enable-background="new 0 0 20.001 20" xml:space="preserve">
<g>
	<g>
		<linearGradient id="SVGID_1_" gradientUnits="userSpaceOnUse" x1="10.001" y1="0" x2="10.001" y2="17.9003">
			<stop  offset="0" style="stop-color:#5A5B5F"/>
			<stop  offset="0.0326" style="stop-color:#57585C"/>
			<stop  offset="0.456" style="stop-color:#333234"/>
			<stop  offset="0.7932" style="stop-color:#1C1B1C"/>
			<stop  offset="1" style="stop-color:#141213"/>
		</linearGradient>
		<circle fill="url(#SVGID_1_)" cx="10.001" cy="10" r="10"/>
		<linearGradient id="SVGID_2_" gradientUnits="userSpaceOnUse" x1="10.001" y1="0" x2="10.001" y2="20">
			<stop  offset="0" style="stop-color:#5A5B5F"/>
			<stop  offset="0.0197" style="stop-color:#56575A"/>
			<stop  offset="0.1524" style="stop-color:#3E3E40"/>
			<stop  offset="0.2989" style="stop-color:#2B2A2C"/>
			<stop  offset="0.4647" style="stop-color:#1E1C1E"/>
			<stop  offset="0.6657" style="stop-color:#161416"/>
			<stop  offset="1" style="stop-color:#141213"/>
		</linearGradient>
		<path fill="url(#SVGID_2_)" d="M10.001,1.602c4.633,0,8.4,3.768,8.4,8.398c0,4.633-3.768,8.4-8.4,8.4c-4.631,0-8.4-3.768-8.4-8.4
			C1.601,5.369,5.37,1.602,10.001,1.602 M10.001,0c-5.523,0-10,4.479-10,10c0,5.523,4.477,10,10,10s10-4.477,10-10
			C20.001,4.479,15.524,0,10.001,0L10.001,0z"/>
	</g>
	<polygon fill="#EDECEB" points="13.987,7.064 12.937,6.016 10.001,8.951 7.065,6.016 6.017,7.064 8.952,10 6.017,12.936 
		7.065,13.986 10.001,11.051 12.937,13.986 13.987,12.936 11.052,10 	"/>
</g>
</svg>
